<?xml version="1.0" encoding="utf-8"?>
<!-- Generator: Adobe Illustrator 26.0.0, SVG Export Plug-In . SVG Version: 6.00 Build 0)  -->
<svg version="1.1" id="Calque_1" xmlns="http://www.w3.org/2000/svg" xmlns:xlink="http://www.w3.org/1999/xlink" x="0px" y="0px"
	 viewBox="0 0 14.68 20.03" style="enable-background:new 0 0 14.68 20.03;" xml:space="preserve">
<style type="text/css">
	.st0{fill:#71B62E;}
</style>
<g>
	<path class="st0" d="M11.4,1.93c0.47,1.17,0.78,2.38,0.93,3.61c0.24,1.98,0.64,5.28-1.49,7.76c-0.84,0.97-1.86,1.58-2.86,1.96
		c-0.99,0.38-1.96,0.52-2.69,0.57C4.93,11.49,7.98,8.01,9.32,6.7C9.43,6.59,9.44,6.4,9.32,6.29C9.21,6.17,9.03,6.17,8.92,6.28
		c-1.38,1.35-4.49,4.9-4.22,9.4c-0.6-0.73-1.35-1.91-1.63-3.5c-0.33-1.91,0.2-3.39,0.42-4.03c1.54-4.33,6.56-6.08,7.55-6.39
		C11.19,1.72,11.35,1.79,11.4,1.93z"/>
	<path class="st0" d="M5.29,15.83c0,0.07,0.01,0.14,0.02,0.21c0.08,0.74,0.26,1.48,0.53,2.19c0.06,0.15-0.02,0.32-0.17,0.37
		c-0.15,0.06-0.32-0.02-0.37-0.17c-0.29-0.76-0.48-1.54-0.57-2.33c-0.02-0.14-0.03-0.28-0.04-0.42c0.02,0.02,0.03,0.04,0.05,0.06
		c0.06,0.07,0.14,0.11,0.23,0.1C5.08,15.84,5.18,15.84,5.29,15.83z"/>
</g>
</svg>
